<svg version="1.1" viewBox="0.0 0.0 960.0 720.0" fill="none" stroke="none" stroke-linecap="square" stroke-miterlimit="10" xmlns:xlink="http://www.w3.org/1999/xlink" xmlns="http://www.w3.org/2000/svg"><clipPath id="p.0"><path d="m0 0l960.0 0l0 720.0l-960.0 0l0 -720.0z" clip-rule="nonzero"/></clipPath><g clip-path="url(#p.0)"><path fill="#000000" fill-opacity="0.0" d="m0 0l960.0 0l0 720.0l-960.0 0z" fill-rule="evenodd"/><path fill="#9fc5e8" d="m143.01837 163.29921l0 0c0 -42.7564 35.817215 -77.41732 80.0 -77.41732l0 0c21.217316 0 41.565643 8.156448 56.568542 22.67501c15.002899 14.518562 23.431458 34.20996 23.431458 54.74231l0 0c0 42.75641 -35.81723 77.41733 -80.0 77.41733l0 0c-44.182785 0 -80.0 -34.66092 -80.0 -77.41733z" fill-rule="evenodd"/><path fill="#000000" fill-opacity="0.0" d="m103.01837 111.15748l232.97638 0l0 100.00001l-232.97638 0z" fill-rule="evenodd"/><path fill="#000000" d="m131.159 139.22249l-0.765625 0q-5.703125 0 -8.875 2.859375q-3.15625 2.84375 -3.15625 10.078125q0 2.359375 0.4375 3.296875q0.453125 0.921875 0.453125 1.046875q-3.453125 0 -5.15625 -1.4375q-1.6875 -1.4375 -1.6875 -4.765625q0 -4.546875 2.234375 -8.28125q2.234375 -3.75 7.125 -6.046875q4.90625 -2.3125 12.453125 -2.3125q4.234375 0 9.09375 0.765625q4.09375 0.703125 7.296875 0.703125q4.09375 0 7.421875 -1.34375q-0.125 4.171875 -2.109375 6.15625q-1.984375 1.96875 -5.890625 1.96875q-2.046875 0 -4.09375 -0.3125q-2.046875 -0.3125 -5.828125 -1.09375l-8.828125 41.09375l-9.21875 0l9.09375 -42.375zm19.330826 42.765625q-3.65625 0 -6.09375 -2.5q-2.421875 -2.5 -2.421875 -7.8125q0 -4.734375 1.875 -9.953125q1.890625 -5.21875 5.640625 -8.828125q3.75 -3.609375 8.921875 -3.609375q2.625 0 3.90625 0.890625q1.28125 0.890625 1.28125 2.359375l0 0.453125l0.703125 -3.390625l9.21875 0l-4.609375 21.765625q-0.25 0.953125 -0.25 2.046875q0 2.75 2.625 2.75q1.78125 0 3.09375 -1.65625q1.3125 -1.671875 2.078125 -4.359375l2.703125 0q-2.375 6.90625 -5.859375 9.375q-3.484375 2.46875 -7.015625 2.46875q-2.6875 0 -4.328125 -1.5q-1.625 -1.515625 -1.9375 -4.390625q-1.859375 2.625 -4.140625 4.265625q-2.265625 1.625 -5.390625 1.625zm4.15625 -6.21875q1.59375 0 3.15625 -1.5q1.578125 -1.5 2.15625 -4.125l3.0625 -14.46875q0 -0.828125 -0.640625 -1.625q-0.640625 -0.8125 -1.984375 -0.8125q-2.546875 0 -4.609375 2.984375q-2.046875 2.96875 -3.203125 7.171875q-1.140625 4.1875 -1.140625 7.390625q0 3.203125 0.921875 4.09375q0.9375 0.890625 2.28125 0.890625zm26.679565 -28.546875l9.21875 0l-1.015625 4.8125q3.1875 -2.75 7.484375 -2.75q3.578125 0 5.6875 2.375q2.125 2.359375 2.125 7.734375q0 5.046875 -1.484375 10.203125q-1.46875 5.15625 -4.984375 8.78125q-3.515625 3.609375 -9.28125 3.609375q-4.09375 0 -5.4375 -2.3125l-3.328125 15.625l-9.671875 2.296875l10.6875 -50.375zm5.765625 29.1875q3.078125 0 5.09375 -2.875q2.015625 -2.875 2.9375 -6.875q0.921875 -4.0 0.921875 -7.46875q0 -5.3125 -3.1875 -5.3125q-1.15625 0 -2.34375 0.84375q-1.1875 0.828125 -2.078125 2.296875l-3.78125 17.921875q0.515625 1.46875 2.4375 1.46875zm72.248825 5.578125q-3.890625 0 -5.71875 -2.078125q-1.828125 -2.09375 -1.828125 -5.15625q0 -1.34375 0.3125 -3.03125q0.328125 -1.703125 0.671875 -3.296875q0.359375 -1.609375 0.484375 -2.0625q0.515625 -2.234375 0.953125 -4.40625q0.453125 -2.1875 0.453125 -3.53125q0 -3.265625 -2.296875 -3.265625q-1.59375 0 -2.84375 1.546875q-1.25 1.53125 -2.015625 3.96875q-1.921875 10.046875 -3.90625 20.921875l-9.21875 0l8.765625 -40.828125q-2.234375 -0.203125 -8.453125 -1.09375l-9.015625 41.921875l-9.21875 0l9.15625 -42.5q-6.078125 0.265625 -9.46875 3.140625q-3.390625 2.875 -3.390625 9.921875q0 2.359375 0.4375 3.296875q0.453125 0.921875 0.453125 1.046875q-3.453125 0 -5.15625 -1.4375q-1.6875 -1.4375 -1.6875 -4.765625q0 -4.484375 2.421875 -8.25q2.4375 -3.78125 7.484375 -6.078125q5.0625 -2.3125 12.609375 -2.3125q1.28125 0 5.453125 0.578125q7.609375 1.09375 11.828125 1.09375q5.515625 0 7.75 -1.546875q-0.96875 1.796875 -1.578125 3.40625q-0.59375 1.59375 -1.5 5.21875q-0.890625 3.609375 -2.296875 10.640625q3.265625 -3.703125 7.609375 -3.703125q3.265625 0 5.1875 1.796875q1.921875 1.78125 1.921875 5.421875q0 1.859375 -0.453125 4.140625q-0.4375 2.265625 -1.28125 5.53125q-0.5 1.984375 -0.921875 3.875q-0.421875 1.890625 -0.421875 2.96875q0 1.28125 0.578125 1.984375q0.578125 0.703125 1.984375 0.703125q1.921875 0 3.0625 -1.375q1.15625 -1.375 2.3125 -4.25l2.6875 0q-2.359375 7.03125 -5.46875 9.4375q-3.109375 2.40625 -6.4375 2.40625zm16.909515 0q-3.65625 0 -6.09375 -2.5q-2.421875 -2.5 -2.421875 -7.8125q0 -4.734375 1.875 -9.953125q1.890625 -5.21875 5.640625 -8.828125q3.75 -3.609375 8.921875 -3.609375q2.625 0 3.90625 0.890625q1.28125 0.890625 1.28125 2.359375l0 0.453125l0.703125 -3.390625l9.21875 0l-4.609375 21.765625q-0.25 0.953125 -0.25 2.046875q0 2.75 2.625 2.75q1.78125 0 3.09375 -1.65625q1.3125 -1.671875 2.078125 -4.359375l2.703125 0q-2.375 6.90625 -5.859375 9.375q-3.484375 2.46875 -7.015625 2.46875q-2.6875 0 -4.328125 -1.5q-1.625 -1.515625 -1.9375 -4.390625q-1.859375 2.625 -4.140625 4.265625q-2.265625 1.625 -5.390625 1.625zm4.15625 -6.21875q1.59375 0 3.15625 -1.5q1.578125 -1.5 2.15625 -4.125l3.0625 -14.46875q0 -0.828125 -0.640625 -1.625q-0.640625 -0.8125 -1.984375 -0.8125q-2.546875 0 -4.609375 2.984375q-2.046875 2.96875 -3.203125 7.171875q-1.140625 4.1875 -1.140625 7.390625q0 3.203125 0.921875 4.09375q0.9375 0.890625 2.28125 0.890625zm27.835815 6.21875q-3.265625 0 -4.84375 -1.984375q-1.5625 -1.984375 -1.5625 -5.25q0 -1.671875 0.390625 -3.390625l4.09375 -19.203125l-2.109375 0l0.515625 -2.5625l2.109375 0l1.921875 -8.828125l9.46875 -1.28125q-0.578125 2.421875 -0.640625 2.875q-0.453125 1.796875 -1.53125 7.234375l3.828125 0l-0.5 2.5625l-3.84375 0l-4.09375 19.203125q-0.328125 1.40625 -0.328125 2.234375q0 2.296875 2.25 2.296875q1.140625 0 1.65625 -0.1875q-1.28125 3.71875 -3.015625 5.0q-1.71875 1.28125 -3.765625 1.28125z" fill-rule="nonzero"/></g></svg>